<svg fill="none" height="auto" viewBox="0 0 110 24" width="100%" xmlns="http://www.w3.org/2000/svg">
<path d="M31.3809 3.06182H36.2383L40.3588 13.1095H40.549L44.6695 3.06182H49.5269V19.2902H45.7075V9.32179H45.5728L41.6742 19.1872H39.2336L35.335 9.26635H35.2003V19.2902H31.3809V3.06182ZM51.0807 19.2902V7.1189H54.9559V19.2902H51.0807ZM53.0221 5.70052C52.4781 5.70052 52.0105 5.52091 51.6198 5.16171C51.229 4.79718 51.0331 4.35872 51.0331 3.8463C51.0331 3.33916 51.229 2.90598 51.6198 2.54676C52.0105 2.18225 52.4781 2 53.0221 2C53.5715 2 54.0391 2.18225 54.4249 2.54676C54.8156 2.90598 55.011 3.33916 55.011 3.8463C55.011 4.35872 54.8156 4.79718 54.4249 5.16171C54.0391 5.52091 53.5715 5.70052 53.0221 5.70052ZM60.4045 12.3488V19.2902H56.5293V7.1189H60.2141V9.35348H60.349C60.6183 8.60863 61.0779 8.0249 61.7275 7.60227C62.3776 7.17438 63.1512 6.96042 64.0492 6.96042C64.905 6.96042 65.6474 7.15326 66.2761 7.5389C66.9098 7.91923 67.4012 8.45278 67.7498 9.13956C68.1039 9.82103 68.2784 10.6187 68.273 11.5326V19.2902H64.3983V12.2933C64.4032 11.6171 64.2317 11.0889 63.8831 10.7085C63.5394 10.3282 63.0614 10.138 62.4485 10.138C62.0419 10.138 61.6829 10.2278 61.371 10.4074C61.0645 10.5817 60.827 10.8326 60.6579 11.1602C60.4943 11.4877 60.4095 11.8839 60.4045 12.3488ZM76.6497 7.1189V9.97158H68.9712V7.1189H76.6497ZM70.5798 4.20288H74.4545V15.4629C74.4545 15.7006 74.4917 15.8935 74.5655 16.0414C74.6449 16.184 74.7584 16.287 74.9062 16.3504C75.054 16.4085 75.231 16.4376 75.4373 16.4376C75.585 16.4376 75.7407 16.4244 75.9044 16.398C76.0735 16.3662 76.2004 16.3399 76.2852 16.3187L76.8713 19.1159C76.6864 19.1687 76.425 19.2347 76.0869 19.314C75.7541 19.3932 75.3554 19.4434 74.8903 19.4646C73.9819 19.5068 73.2024 19.4011 72.5528 19.1476C71.9082 18.8887 71.4143 18.4873 71.0712 17.9431C70.733 17.399 70.5693 16.7149 70.5798 15.8908V4.20288ZM81.8702 3.06182V19.2902H77.9954V3.06182H81.8702ZM83.444 19.2902V7.1189H87.3188V19.2902H83.444ZM85.3854 5.70052C84.8414 5.70052 84.3738 5.52091 83.9831 5.16171C83.5918 4.79718 83.3964 4.35872 83.3964 3.8463C83.3964 3.33916 83.5918 2.90598 83.9831 2.54676C84.3738 2.18225 84.8414 2 85.3854 2C85.9348 2 86.4024 2.18225 86.7882 2.54676C87.1789 2.90598 87.3743 3.33916 87.3743 3.8463C87.3743 4.35872 87.1789 4.79718 86.7882 5.16171C86.4024 5.52091 85.9348 5.70052 85.3854 5.70052ZM95.8105 7.1189V9.97158H87.9812V7.1189H95.8105ZM89.6136 19.2902V6.50085C89.6136 5.56053 89.7907 4.78133 90.1447 4.16326C90.4988 3.5399 90.9902 3.07503 91.6184 2.76863C92.2472 2.45695 92.9736 2.30111 93.7978 2.30111C94.3368 2.30111 94.8436 2.34337 95.3191 2.4279C95.8001 2.50714 96.1566 2.57845 96.3887 2.64185L95.7708 5.47867C95.628 5.43111 95.454 5.39149 95.2477 5.35981C95.0469 5.32807 94.8569 5.31225 94.6774 5.31225C94.2227 5.31225 93.9113 5.41262 93.7422 5.61334C93.5731 5.81412 93.4888 6.08878 93.4888 6.43748V19.2902H89.6136ZM99.1511 23.8544C98.6865 23.8544 98.2477 23.8175 97.8356 23.7435C97.4241 23.6748 97.07 23.5824 96.774 23.4662L97.6298 20.6532C98.0102 20.78 98.3538 20.8539 98.6597 20.875C98.9716 20.8961 99.2384 20.846 99.4601 20.7245C99.6877 20.6082 99.8617 20.3996 99.9832 20.0985L100.134 19.734L95.8075 7.1189H99.8642L102.107 15.8037H102.233L104.508 7.1189H108.589L104.001 20.4551C103.779 21.1207 103.465 21.707 103.058 22.2142C102.656 22.7266 102.136 23.1281 101.497 23.4186C100.863 23.7092 100.081 23.8544 99.1511 23.8544Z" fill="currentcolor"></path>
<mask height="24" id="mask0_4238_40" maskUnits="userSpaceOnUse" style="mask-type:luminance" width="24" x="1" y="0">
<path d="M24.6348 0H1V23.6348H24.6348V0Z" fill="white"></path>
</mask>
<g mask="url(#mask0_4238_40)">
<path d="M7.22763 8.62342C7.24415 6.37269 8.13673 4.21692 9.71609 2.61328H9.71318L3.61572 8.71074H3.61863C3.59593 8.7286 3.57453 8.74804 3.55459 8.76894C2.0717 10.2499 1.17264 12.216 1.02241 14.3063C0.872184 16.3967 1.48087 18.4711 2.73675 20.149L8.89533 13.9903L8.95936 13.9292C7.81152 12.4007 7.20254 10.5348 7.22763 8.62342Z" fill="#0C8C5E"></path>
<path d="M22.0327 14.9336C20.8657 16.0773 19.4008 16.8701 17.805 17.2216C16.2093 17.573 14.5469 17.469 13.0074 16.9215C12.1865 16.63 11.415 16.2149 10.7197 15.6904L10.6556 15.7544L4.49707 21.91C6.17554 23.1628 8.24884 23.7695 10.3379 23.6194C12.427 23.4692 14.3921 22.5721 15.8741 21.0921L15.9353 21.031L22.0327 14.9336Z" fill="#0C8C5E"></path>
<path d="M24.6467 8.71108V4.35893e-06H15.9356C14.7916 -0.00114182 13.6586 0.223763 12.6016 0.661799C11.5448 1.09984 10.5848 1.74238 9.77701 2.5525L9.71589 2.61362C8.6511 3.6946 7.88927 5.03658 7.50684 6.50493C8.19913 6.32565 8.91058 6.23087 9.62567 6.22262C11.5371 6.20012 13.4024 6.80995 14.9315 7.95726C16.3057 8.98207 17.3457 10.3908 17.9206 12.0058C18.5064 13.6564 18.5834 15.4449 18.1417 17.1398C19.6104 16.7581 20.9525 15.9961 22.033 14.9308L22.0942 14.8726C22.9046 14.0644 23.5474 13.104 23.9854 12.0466C24.4234 10.9892 24.6482 9.85563 24.6467 8.71108Z" fill="#18E299"></path>
</g>
</svg>